<svg width="400" height="300" viewBox="0 0 400 300" xmlns="http://www.w3.org/2000/svg">
  <!-- Background -->
  <rect width="400" height="300" fill="#1f2937"/>
  
  <!-- Header -->
  <rect width="400" height="50" fill="#111827"/>
  <text x="20" y="30" fill="#10b981" font-family="Arial, sans-serif" font-size="16" font-weight="bold">Analytics Dashboard</text>
  
  <!-- Performance Chart -->
  <rect x="20" y="60" width="360" height="120" rx="8" fill="#374151"/>
  <text x="30" y="80" fill="#9ca3af" font-family="Arial, sans-serif" font-size="12">Weekly Performance</text>
  
  <!-- Chart Bars -->
  <rect x="40" y="140" width="20" height="30" fill="#10b981"/>
  <rect x="70" y="120" width="20" height="50" fill="#10b981"/>
  <rect x="100" y="100" width="20" height="70" fill="#3b82f6"/>
  <rect x="130" y="110" width="20" height="60" fill="#3b82f6"/>
  <rect x="160" y="90" width="20" height="80" fill="#f59e0b"/>
  <rect x="190" y="95" width="20" height="75" fill="#f59e0b"/>
  <rect x="220" y="85" width="20" height="85" fill="#ef4444"/>
  
  <!-- Stats Grid -->
  <rect x="20" y="190" width="110" height="60" rx="6" fill="#374151"/>
  <text x="30" y="210" fill="#9ca3af" font-family="Arial, sans-serif" font-size="10">Accuracy</text>
  <text x="30" y="230" fill="#10b981" font-family="Arial, sans-serif" font-size="18" font-weight="bold">87%</text>
  
  <rect x="145" y="190" width="110" height="60" rx="6" fill="#374151"/>
  <text x="155" y="210" fill="#9ca3af" font-family="Arial, sans-serif" font-size="10">Avg Speed</text>
  <text x="155" y="230" fill="#3b82f6" font-family="Arial, sans-serif" font-size="18" font-weight="bold">12s</text>
  
  <rect x="270" y="190" width="110" height="60" rx="6" fill="#374151"/>
  <text x="280" y="210" fill="#9ca3af" font-family="Arial, sans-serif" font-size="10">Best Streak</text>
  <text x="280" y="230" fill="#f59e0b" font-family="Arial, sans-serif" font-size="18" font-weight="bold">15</text>
  
  <!-- Subject Breakdown -->
  <text x="20" y="275" fill="#9ca3af" font-family="Arial, sans-serif" font-size="12">Top Subject: Microbiology (92%)</text>
</svg>